<svg width="16" height="17" viewBox="0 0 16 17" xmlns="http://www.w3.org/2000/svg">
  <path
    d="M8.26912 15.9833L8.52166 15.7308C8.68902 15.5635 8.68902 15.2921 8.52166 15.1247L2.14687 8.74995H15.5714C15.8081 8.74995 16 8.55806 16 8.32138V7.96424C16 7.72756 15.8081 7.53567 15.5714 7.53567H2.14687L8.52166 1.16088C8.68902 0.993526 8.68902 0.722168 8.52166 0.554776L8.26912 0.302276C8.10177 0.134919 7.83041 0.134919 7.66305 0.302276L0.125518 7.83978C-0.0418393 8.00713 -0.0418393 8.27849 0.125518 8.44588L7.66305 15.9834C7.83041 16.1507 8.10177 16.1507 8.26912 15.9833Z"/>
</svg>
