<svg width="16" height="17" viewBox="0 0 16 17" xmlns="http://www.w3.org/2000/svg">
  <path
    d="M10.1351 11.1076L10.1352 11.1077L10.8871 10.0768L10.9165 10.0364L10.9165 10.0364C10.9164 10.0363 10.9164 10.0363 10.9164 10.0363L8.6629 8.39652V3.70262C8.6629 3.4621 8.46632 3.26552 8.22581 3.26552H7.77419C7.53368 3.26552 7.3371 3.4621 7.3371 3.70262V8.85101C7.3371 8.98945 7.40268 9.12046 7.51537 9.20407L7.51577 9.20436L10.1351 11.1076ZM8 0.16875C3.55303 0.16875 -0.05 3.77178 -0.05 8.21875C-0.05 12.6657 3.55303 16.2687 8 16.2687C12.447 16.2687 16.05 12.6657 16.05 8.21875C16.05 3.77178 12.447 0.16875 8 0.16875ZM14.9177 8.21875C14.9177 12.0203 11.8399 15.1365 8 15.1365C4.1984 15.1365 1.08226 12.0587 1.08226 8.21875C1.08226 4.41715 4.16005 1.30101 8 1.30101C11.8016 1.30101 14.9177 4.3788 14.9177 8.21875Z"/>
</svg>
