<svg width="14" height="19" viewBox="0 0 14 19" xmlns="http://www.w3.org/2000/svg">
  <path
    d="M7 3.5C5.07008 3.5 3.5 5.07008 3.5 7C3.5 8.92992 5.07008 10.5 7 10.5C8.92992 10.5 10.5 8.92992 10.5 7C10.5 5.07008 8.92992 3.5 7 3.5ZM7 9.33333C5.71339 9.33333 4.66667 8.28661 4.66667 7C4.66667 5.71339 5.71339 4.66667 7 4.66667C8.28661 4.66667 9.33333 5.71339 9.33333 7C9.33333 8.28661 8.28661 9.33333 7 9.33333ZM7 0C3.13399 0 0 3.13399 0 7C0 9.82235 0.983281 10.6105 6.2806 18.2901C6.6282 18.7922 7.37177 18.7922 7.71943 18.2901C13.0167 10.6105 14 9.82235 14 7C14 3.13399 10.866 0 7 0ZM7 17.2787C1.92154 9.93446 1.16667 9.35134 1.16667 7C1.16667 5.44184 1.77344 3.97698 2.87521 2.87521C3.97698 1.77344 5.44184 1.16667 7 1.16667C8.55816 1.16667 10.023 1.77344 11.1248 2.87521C12.2266 3.97698 12.8333 5.44184 12.8333 7C12.8333 9.3512 12.0789 9.9338 7 17.2787Z"/>
</svg>
