<svg width="14" height="10" viewBox="0 0 14 10" xmlns="http://www.w3.org/2000/svg">
  <path
    d="M0.1875 1.22773H13.8125C13.8755 1.22773 13.9359 1.20271 13.9804 1.15817C14.025 1.11363 14.05 1.05322 14.05 0.990235V0.240234C14.05 0.177245 14.025 0.116836 13.9804 0.0722964L13.9804 0.0722959C13.9359 0.0277564 13.8755 0.00273437 13.8125 0.00273437H0.1875C0.124511 0.00273437 0.0641021 0.0277564 0.0195621 0.0722963C-0.0249778 0.116836 -0.05 0.177245 -0.05 0.240234V0.990235C-0.05 1.05322 -0.0249777 1.11363 0.0195621 1.15817C0.064102 1.20271 0.124511 1.22773 0.1875 1.22773ZM0.1875 9.22773H13.8125C13.8755 9.22773 13.9359 9.20271 13.9804 9.15817C14.025 9.11363 14.05 9.05322 14.05 8.99023V8.24023C14.05 8.17725 14.025 8.11684 13.9804 8.0723C13.9359 8.02776 13.8755 8.00273 13.8125 8.00273H0.1875C0.124512 8.00273 0.0641025 8.02776 0.0195622 8.0723L0.0195617 8.0723C-0.0249777 8.11684 -0.05 8.17725 -0.05 8.24023V8.99023C-0.05 9.05322 -0.0249776 9.11363 0.0195622 9.15817C0.0641021 9.20271 0.124511 9.22773 0.1875 9.22773ZM8.8125 4.00273H0.1875C0.124511 4.00273 0.064102 4.02776 0.0195622 4.0723C-0.0249778 4.11684 -0.05 4.17725 -0.05 4.24023V4.99023C-0.05 5.05322 -0.0249778 5.11363 0.019562 5.15817C0.0641025 5.20271 0.124512 5.22773 0.1875 5.22773H8.8125C8.87549 5.22773 8.9359 5.20271 8.98044 5.15817C9.02498 5.11363 9.05 5.05322 9.05 4.99023V4.24023C9.05 4.17725 9.02498 4.11684 8.98044 4.0723C8.9359 4.02776 8.87549 4.00273 8.8125 4.00273Z"/>
</svg>
