<svg width="16" height="19" viewBox="0 0 16 19" xmlns="http://www.w3.org/2000/svg">
  <path
    d="M14.2857 2.28571H12.5714V0.428571C12.5714 0.192857 12.3786 0 12.1429 0H11.8571C11.6214 0 11.4286 0.192857 11.4286 0.428571V2.28571H4.57143V0.428571C4.57143 0.192857 4.37857 0 4.14286 0H3.85714C3.62143 0 3.42857 0.192857 3.42857 0.428571V2.28571H1.71429C0.767857 2.28571 0 3.05357 0 4V16.5714C0 17.5179 0.767857 18.2857 1.71429 18.2857H14.2857C15.2321 18.2857 16 17.5179 16 16.5714V4C16 3.05357 15.2321 2.28571 14.2857 2.28571ZM1.71429 3.42857H14.2857C14.6 3.42857 14.8571 3.68571 14.8571 4V5.71429H1.14286V4C1.14286 3.68571 1.4 3.42857 1.71429 3.42857ZM14.2857 17.1429H1.71429C1.4 17.1429 1.14286 16.8857 1.14286 16.5714V6.85714H14.8571V16.5714C14.8571 16.8857 14.6 17.1429 14.2857 17.1429ZM5.28571 11.4286H3.85714C3.62143 11.4286 3.42857 11.2357 3.42857 11V9.57143C3.42857 9.33571 3.62143 9.14286 3.85714 9.14286H5.28571C5.52143 9.14286 5.71429 9.33571 5.71429 9.57143V11C5.71429 11.2357 5.52143 11.4286 5.28571 11.4286ZM8.71429 11.4286H7.28571C7.05 11.4286 6.85714 11.2357 6.85714 11V9.57143C6.85714 9.33571 7.05 9.14286 7.28571 9.14286H8.71429C8.95 9.14286 9.14286 9.33571 9.14286 9.57143V11C9.14286 11.2357 8.95 11.4286 8.71429 11.4286ZM12.1429 11.4286H10.7143C10.4786 11.4286 10.2857 11.2357 10.2857 11V9.57143C10.2857 9.33571 10.4786 9.14286 10.7143 9.14286H12.1429C12.3786 9.14286 12.5714 9.33571 12.5714 9.57143V11C12.5714 11.2357 12.3786 11.4286 12.1429 11.4286ZM8.71429 14.8571H7.28571C7.05 14.8571 6.85714 14.6643 6.85714 14.4286V13C6.85714 12.7643 7.05 12.5714 7.28571 12.5714H8.71429C8.95 12.5714 9.14286 12.7643 9.14286 13V14.4286C9.14286 14.6643 8.95 14.8571 8.71429 14.8571ZM5.28571 14.8571H3.85714C3.62143 14.8571 3.42857 14.6643 3.42857 14.4286V13C3.42857 12.7643 3.62143 12.5714 3.85714 12.5714H5.28571C5.52143 12.5714 5.71429 12.7643 5.71429 13V14.4286C5.71429 14.6643 5.52143 14.8571 5.28571 14.8571ZM12.1429 14.8571H10.7143C10.4786 14.8571 10.2857 14.6643 10.2857 14.4286V13C10.2857 12.7643 10.4786 12.5714 10.7143 12.5714H12.1429C12.3786 12.5714 12.5714 12.7643 12.5714 13V14.4286C12.5714 14.6643 12.3786 14.8571 12.1429 14.8571Z"/>
</svg>
