<svg width="14" height="16" viewBox="0 0 14 16" xmlns="http://www.w3.org/2000/svg">
  <path
    d="M9.8 8.95C9.39862 8.95 9.08744 9.04853 8.74659 9.15644C8.6987 9.1716 8.65023 9.18695 8.60084 9.20224C8.1998 9.32635 7.72925 9.45 7 9.45C6.27076 9.45 5.80099 9.32635 5.40034 9.20224C5.35133 9.18706 5.30323 9.17181 5.25569 9.15675C4.91468 9.04871 4.60313 8.95 4.2 8.95C1.85364 8.95 -0.05 10.8536 -0.05 13.2V14.5C-0.05 15.3557 0.644261 16.05 1.5 16.05H12.5C13.3557 16.05 14.05 15.3557 14.05 14.5V13.2C14.05 10.8536 12.1464 8.95 9.8 8.95ZM12.95 14.5C12.95 14.7474 12.7474 14.95 12.5 14.95H1.5C1.25261 14.95 1.05 14.7474 1.05 14.5V13.2C1.05 11.462 2.46199 10.05 4.2 10.05C4.34645 10.05 4.4943 10.0799 4.66053 10.1263C4.75077 10.1515 4.84304 10.1805 4.94253 10.2117C5.02962 10.2391 5.12223 10.2682 5.22382 10.298C5.6533 10.4239 6.20502 10.55 7 10.55C7.79343 10.55 8.34515 10.4239 8.775 10.298C8.87645 10.2683 8.96901 10.2392 9.05607 10.2119C9.1559 10.1806 9.24851 10.1515 9.33901 10.1263C9.5055 10.0799 9.65355 10.05 9.8 10.05C11.538 10.05 12.95 11.462 12.95 13.2V14.5ZM7 8.05C9.23699 8.05 11.05 6.23699 11.05 4C11.05 1.76301 9.23699 -0.05 7 -0.05C4.76301 -0.05 2.95 1.76301 2.95 4C2.95 6.23699 4.76301 8.05 7 8.05ZM7 1.05C8.62551 1.05 9.95 2.37449 9.95 4C9.95 5.62551 8.62551 6.95 7 6.95C5.37449 6.95 4.05 5.62551 4.05 4C4.05 2.37449 5.37449 1.05 7 1.05Z"/>
</svg>
