<svg width="16" height="19" viewBox="0 0 16 19" xmlns="http://www.w3.org/2000/svg">
  <path
    d="M14.2857 2.28571H12.5714V0.285714C12.5714 0.128571 12.4429 0 12.2857 0H11.7143C11.5571 0 11.4286 0.128571 11.4286 0.285714V2.28571H4.57143V0.285714C4.57143 0.128571 4.44286 0 4.28571 0H3.71429C3.55714 0 3.42857 0.128571 3.42857 0.285714V2.28571H1.71429C0.767857 2.28571 0 3.05357 0 4V16.5714C0 17.5179 0.767857 18.2857 1.71429 18.2857H14.2857C15.2321 18.2857 16 17.5179 16 16.5714V4C16 3.05357 15.2321 2.28571 14.2857 2.28571ZM14.8571 16.5714C14.8571 16.8857 14.6 17.1429 14.2857 17.1429H1.71429C1.4 17.1429 1.14286 16.8857 1.14286 16.5714V6.85714H14.8571V16.5714ZM14.8571 5.71429H1.14286V4C1.14286 3.68571 1.4 3.42857 1.71429 3.42857H14.2857C14.6 3.42857 14.8571 3.68571 14.8571 4V5.71429ZM2.85714 12.5714H13.1429C13.4571 12.5714 13.7143 12.3143 13.7143 12V8.57143C13.7143 8.25714 13.4571 8 13.1429 8H2.85714C2.54286 8 2.28571 8.25714 2.28571 8.57143V12C2.28571 12.3143 2.54286 12.5714 2.85714 12.5714ZM3.42857 9.14286H12.5714V11.4286H3.42857V9.14286Z"/>
</svg>
